PathFileType	4	(X/Y/Z)	1H_nor_fast_right.trc
DataRate	CameraRate	NumFrames	NumMarkers	Units	OrigDataRate	OrigDataStartFrame	OrigNumFrames
250.00	250.00	15	18	mm	250.00	1155	9233
Frame#	Time	c7	r_should	r_elb_m	clavicle	r_upa	r_wri_m	l_upa	l_elb_l	l_low	l_wri_l	l_met	l_elb_m	r_elb_l	l_should	r_low	r_wri_l	r_met	l_wri_m
	X1	Y1	Z1	X2	Y2	Z2	X3	Y3	Z3	X4	Y4	Z4	X5	Y5	Z5	X6	Y6	Z6	X7	Y7	Z7	X8	Y8	Z8	X9	Y9	Z9	X10	Y10	Z10	X11	Y11	Z11	X12	Y12	Z12	X13	Y13	Z13	X14	Y14	Z14	X15	Y15	Z15	X16	Y16	Z16	X17	Y17	Z17	X18	Y18	Z18
1155	4.61600	1086.02734	1427.36719	141.71712	1147.42432	1370.90112	291.39197	1139.26514	1084.13379	412.76111	1196.02698	1288.12817	121.92212	1199.42981	1199.03479	393.99744	1278.39514	1047.66943	245.76820	1086.74976	1145.99841	-92.96320	1090.86609	1038.43298	-108.78146	1100.13147	916.08881	-98.86149	1125.09155	801.48175	-72.74681	1110.16162	721.13873	-111.50299	1044.39307	1028.88342	-19.52713	1207.93201	1149.69055	429.87524	1098.19067	1361.06567	-37.34101	1260.45398	1124.61267	338.88068	1290.27832	1123.24646	239.55484	1344.60156	1102.46533	184.94173	1045.52893	793.13672	-70.78822
1156	4.62000	1085.85840	1426.50842	140.93861	1146.53369	1371.67908	290.96307	1139.76794	1084.16821	412.39563	1196.04749	1288.13440	121.87115	1199.65381	1199.37170	393.96918	1278.49390	1050.01550	244.98999	1086.75061	1145.94116	-92.97456	1090.86768	1038.37231	-108.76028	1100.13440	916.01349	-98.81698	1125.08118	801.45233	-72.71347	1110.16882	721.07208	-111.40423	1044.42090	1028.84155	-19.49166	1207.87720	1150.72180	429.70462	1098.20251	1361.02771	-37.40614	1260.52466	1126.36072	338.67902	1290.29468	1125.90796	239.51711	1344.53088	1105.80896	184.49397	1045.53259	793.08807	-70.69908
1157	4.62400	1085.83386	1426.29858	140.67281	1146.25745	1371.98157	290.77158	1140.28625	1084.27637	412.12732	1196.06384	1288.14185	121.81470	1199.87866	1199.71948	393.94830	1278.74084	1052.50806	244.24788	1086.74646	1145.87781	-92.98634	1090.86340	1038.30798	-108.73672	1100.13623	915.94495	-98.76437	1125.07764	801.40503	-72.65302	1110.17297	721.00342	-111.31445	1044.44592	1028.79529	-19.45323	1207.73779	1151.86243	429.47119	1098.21313	1360.98438	-37.47543	1260.76025	1127.98303	338.61652	1289.50244	1129.05835	239.53923	1344.44019	1109.11218	184.08147	1045.53271	793.03839	-70.62315
1158	4.62800	1085.84570	1426.24744	140.53766	1146.13806	1372.16492	290.63824	1140.73792	1084.42932	411.91440	1196.08386	1288.14978	121.75916	1200.09399	1200.06970	393.93155	1279.04724	1055.03418	243.55682	1086.73254	1145.81201	-93.00258	1090.85815	1038.24902	-108.72363	1100.13611	915.86334	-98.71108	1125.07678	801.35181	-72.58917	1110.16760	720.93262	-111.22797	1044.44958	1028.75378	-19.42072	1208.51123	1151.79626	429.85385	1098.22827	1360.93811	-37.55156	1261.06372	1129.58203	338.63428	1288.51501	1132.32251	239.58990	1344.34436	1112.38867	183.67046	1045.53625	792.97711	-70.54876
1159	4.63200	1085.86206	1426.23352	140.42802	1146.05017	1372.32312	290.51987	1140.43933	1085.13452	412.34961	1196.10095	1288.15942	121.70249	1200.30859	1200.42310	393.91483	1279.33313	1057.50989	242.88316	1086.71313	1145.74597	-93.02061	1090.84827	1038.17944	-108.71346	1100.13416	915.78827	-98.68001	1125.07495	801.29120	-72.53252	1110.16016	720.85535	-111.14095	1044.45935	1028.71155	-19.39829	1208.87134	1152.25342	429.98654	1098.24060	1360.89136	-37.63068	1261.27600	1131.45264	338.86563	1289.81665	1133.97839	239.49031	1344.97375	1115.29419	183.43904	1045.52820	792.91650	-70.46515
1160	4.63600	1085.87549	1426.23010	140.31728	1145.96814	1372.47534	290.40488	1139.06824	1086.60461	413.73990	1196.11450	1288.16553	121.63728	1200.52454	1200.77966	393.89417	1279.92053	1059.76892	242.41406	1086.69995	1145.67786	-93.04318	1090.84534	1038.10754	-108.70635	1100.12256	915.71893	-98.65782	1125.07288	801.23004	-72.46588	1110.15295	720.78015	-111.05449	1044.47461	1028.67004	-19.37136	1208.81799	1153.23828	429.84058	1098.25183	1360.84021	-37.71083	1261.34778	1133.67712	339.38699	1290.13989	1136.29395	239.49988	1346.49231	1117.76746	183.45192	1045.51892	792.85260	-70.38586
1161	4.64000	1085.88818	1426.22937	140.21198	1145.89050	1372.62781	290.28262	1139.99487	1086.46130	413.32336	1196.13306	1288.17554	121.57538	1200.74658	1201.13501	393.85217	1280.94556	1061.76245	242.22160	1086.68860	1145.60254	-93.06229	1090.84277	1038.03174	-108.69977	1100.11365	915.63940	-98.61922	1125.07056	801.17535	-72.40434	1110.14368	720.70935	-110.97643	1044.47949	1028.62744	-19.34833	1208.34998	1154.76868	429.41779	1098.26562	1360.78748	-37.78625	1261.63025	1135.41028	339.58282	1290.18921	1138.74866	239.53935	1346.54565	1121.31738	182.85722	1045.50745	792.78070	-70.29402
1162	4.64400	1085.90247	1426.23730	140.10828	1145.81128	1372.77966	290.15805	1143.65723	1084.62537	411.05743	1196.15576	1288.18445	121.52213	1200.97046	1201.48206	393.78839	1281.48047	1064.04272	241.72891	1086.67151	1145.53137	-93.07974	1090.83777	1037.96106	-108.69521	1100.11279	915.56201	-98.57806	1125.06433	801.11298	-72.36285	1110.12964	720.63623	-110.90089	1044.50085	1028.57910	-19.32594	1208.39417	1155.60071	429.32541	1098.27893	1360.73450	-37.86565	1262.37024	1136.10315	339.42667	1290.17834	1141.20032	239.58743	1346.23071	1125.25891	181.97050	1045.49036	792.71118	-70.19759
1163	4.64800	1085.92151	1426.25354	140.01100	1145.72522	1372.92993	290.02667	1144.93298	1084.28052	410.32867	1196.18176	1288.20056	121.46285	1201.19458	1201.83838	393.72012	1281.87085	1066.39478	241.17769	1086.66553	1145.46509	-93.10546	1090.83960	1037.88782	-108.68974	1100.11621	915.47998	-98.52855	1125.06140	801.05927	-72.31950	1110.11670	720.56769	-110.83028	1044.53174	1028.51965	-19.31194	1208.86829	1155.86084	429.52118	1098.29260	1360.68628	-37.93884	1263.54590	1135.58154	338.84216	1290.15588	1143.59094	239.66180	1346.45068	1127.85034	182.19308	1045.46826	792.66522	-70.11755
1164	4.65200	1085.93823	1426.27063	139.91412	1145.63550	1373.08191	289.89767	1145.62915	1084.30615	409.96872	1196.20740	1288.22424	121.40684	1201.42664	1202.21167	393.66733	1282.21387	1068.72278	240.61472	1086.66919	1145.40356	-93.13231	1090.84033	1037.82007	-108.67938	1100.12695	915.40796	-98.48853	1125.05786	801.01166	-72.27753	1110.10095	720.49774	-110.76138	1044.55164	1028.47021	-19.30166	1209.45984	1155.99463	429.81064	1098.30493	1360.64050	-38.01065	1263.91748	1136.53784	338.62161	1289.36755	1146.49707	239.81317	1346.29419	1130.63965	182.20355	1045.44678	792.62421	-70.05213
1165	4.65600	1085.94812	1426.28040	139.81458	1145.54761	1373.23840	289.76578	1146.21899	1084.42920	409.68219	1196.23425	1288.24878	121.35363	1201.64990	1202.59668	393.62503	1282.53125	1071.00183	240.03316	1086.67590	1145.34766	-93.14944	1090.83875	1037.76099	-108.67561	1100.13257	915.35248	-98.45426	1125.05139	800.96228	-72.22409	1110.08350	720.43085	-110.69704	1044.57092	1028.42090	-19.28408	1209.13599	1157.29700	429.50516	1098.31812	1360.59399	-38.08523	1264.04773	1137.87109	338.52191	1287.63574	1150.05090	240.06920	1346.10583	1133.46960	182.17046	1045.43689	792.57672	-69.97998
1166	4.66000	1085.95886	1426.29785	139.71643	1145.83923	1373.10095	289.77756	1146.77002	1084.56299	409.41806	1196.25928	1288.27307	121.29971	1201.86426	1202.97241	393.58789	1282.85852	1073.26184	239.46603	1086.68774	1145.28943	-93.16792	1090.83960	1037.70703	-108.68022	1100.13538	915.30060	-98.41335	1124.65186	800.87036	-72.05463	1110.06177	720.36633	-110.63305	1044.58362	1028.37646	-19.27639	1209.19299	1158.05652	429.45053	1098.33215	1360.55334	-38.16668	1264.15112	1139.26929	338.43411	1287.18018	1152.62817	240.22749	1345.97473	1136.34253	182.08058	1045.42737	792.51678	-69.91567
1167	4.66400	1085.96680	1426.31787	139.61835	1146.59814	1372.59155	289.97784	1147.28723	1084.69617	409.15524	1196.28381	1288.29736	121.24522	1202.72278	1203.17517	394.09805	1283.25208	1075.53455	238.92755	1086.70142	1145.23096	-93.18895	1090.84766	1037.64087	-108.67738	1100.13904	915.24860	-98.38229	1123.72888	800.70593	-71.70774	1110.03357	720.30963	-110.58134	1044.59290	1028.32227	-19.27135	1209.34351	1158.66113	429.46872	1098.34485	1360.51086	-38.23956	1263.78894	1141.02075	338.12524	1287.02454	1154.92883	240.36569	1345.90454	1139.26050	181.96933	1045.41772	792.45569	-69.85924
1168	4.66800	1085.97058	1426.33911	139.52658	1146.33972	1372.88574	289.79254	1147.79871	1084.82117	408.90497	1196.30334	1288.32007	121.18444	1203.74121	1203.32007	394.72433	1283.69067	1077.73523	238.45815	1086.71484	1145.16467	-93.20388	1090.85059	1037.57751	-108.68095	1099.79431	915.89136	-98.95347	1123.48584	800.62329	-71.60500	1110.01025	720.24854	-110.53778	1044.59790	1028.27332	-19.25947	1209.53162	1159.23975	429.51694	1098.35645	1360.46411	-38.31282	1262.86792	1143.17188	337.57077	1286.96814	1157.13867	240.48636	1345.83447	1142.15833	181.83612	1045.40295	792.39716	-69.81173
1169	4.67200	1085.96411	1426.35474	139.43172	1145.44690	1373.67346	289.34320	1148.31348	1084.93396	408.66678	1196.31787	1288.34277	121.12142	1202.85486	1203.92798	393.70065	1284.03162	1079.91138	238.04459	1086.72986	1145.09790	-93.22863	1090.85010	1037.50867	-108.69469	1099.01477	917.40173	-100.27397	1123.41528	800.55914	-71.56425	1109.98889	720.18066	-110.49604	1044.60522	1028.22278	-19.24934	1209.73621	1159.80212	429.58798	1098.36829	1360.41516	-38.39830	1262.73706	1144.66956	337.34506	1286.92834	1159.28357	240.63428	1345.72351	1144.97827	181.71001	1045.39197	792.33032	-69.76084
